<svg width="353" height="119" viewBox="0 0 353 119" fill="none" xmlns="http://www.w3.org/2000/svg">
<g clip-path="url(#clip0_2469_8950)">
<path d="M27.7379 62.124C20.5474 62.124 14.7186 67.9528 14.7186 75.1433C14.7186 82.3338 20.5474 88.1625 27.7379 88.1625C34.9284 88.1625 40.7571 82.3338 40.7571 75.1433C40.7571 67.9528 34.9284 62.124 27.7379 62.124ZM27.7379 77.0585C26.6806 77.0585 25.8226 76.2005 25.8226 75.1433C25.8226 74.086 26.6806 73.228 27.7379 73.228C28.7951 73.228 29.6531 74.086 29.6531 75.1433C29.6531 76.2005 28.7951 77.0585 27.7379 77.0585Z" fill="#42145F"/>
<path d="M18.3166 32.7749C8.19793 32.7749 0 40.9784 0 51.0915C0 61.2047 8.19793 69.4082 18.3166 69.4082C28.4353 69.4082 36.6333 61.2047 36.6333 51.0915C36.6333 40.9784 28.4353 32.7749 18.3166 32.7749ZM18.3166 58.9075C13.999 58.9075 10.5007 55.4091 10.5007 51.0915C10.5007 46.7739 13.999 43.2756 18.3166 43.2756C22.6342 43.2756 26.1326 46.7739 26.1326 51.0915C26.1326 55.4091 22.6342 58.9075 18.3166 58.9075Z" fill="#00B2A9"/>
<path d="M27.7379 62.1237C22.662 62.1237 18.2669 65.0298 16.1191 69.2699C16.8387 69.3585 17.5694 69.4027 18.3167 69.4027C23.913 69.4027 28.917 66.8897 32.277 62.9319C30.8654 62.406 29.3377 62.1182 27.7379 62.1182" fill="#175E54"/>
<path d="M46.0046 0C31.9835 0 20.6138 11.3697 20.6138 25.3853C20.6138 39.401 31.9835 50.7762 46.0046 50.7762C60.0258 50.7762 71.39 39.4065 71.39 25.3853C71.39 11.3642 60.0258 0 46.0046 0ZM46.0046 42.4012C36.6111 42.4012 28.9944 34.7844 28.9944 25.3909C28.9944 15.9973 36.6111 8.38059 46.0046 8.38059C55.3982 8.38059 63.0149 15.9973 63.0149 25.3909C63.0149 34.7844 55.3982 42.4012 46.0046 42.4012Z" fill="#69BE28"/>
<path d="M21.8206 33.1182C24.1177 40.3197 29.5424 46.1153 36.5004 48.9273C35.565 40.995 29.5646 34.6183 21.8206 33.1182Z" fill="#007A87"/>
<path d="M254.966 52.6138H259.394V82.1562H277.008V85.8815H254.971V52.6138H254.966Z" fill="#42145F"/>
<path d="M303.096 85.8044C302.399 86.2251 301.513 86.4576 300.251 86.4576C298.197 86.4576 296.897 85.3394 296.897 82.7267C294.705 85.2896 291.771 86.4576 288.411 86.4576C284.027 86.4576 280.44 84.498 280.44 79.6988C280.44 74.2465 284.497 73.0785 288.599 72.2869C292.983 71.4456 296.708 71.7279 296.708 68.7443C296.708 65.2957 293.863 64.7367 291.35 64.7367C287.996 64.7367 285.521 65.7607 285.339 69.3034H281.375C281.608 63.3362 286.224 61.2383 291.583 61.2383C295.917 61.2383 300.628 62.218 300.628 67.8586V80.2579C300.628 82.1233 300.628 82.9592 301.884 82.9592C302.211 82.9592 302.582 82.9149 303.096 82.7267V85.8044ZM296.664 73.4494C295.125 74.5675 292.142 74.6173 289.485 75.0823C286.872 75.5473 284.636 76.4828 284.636 79.4165C284.636 82.0292 286.872 82.9592 289.297 82.9592C294.516 82.9592 296.664 79.6988 296.664 77.5068V73.4494Z" fill="#42145F"/>
<path d="M306.656 52.6084H310.619V65.0852H310.713C312.019 62.4282 315.097 61.2602 318.407 61.2658C325.819 61.2658 329.5 67.1388 329.5 73.9474C329.5 80.7504 325.863 86.485 318.496 86.485C316.027 86.485 312.484 85.5551 310.713 82.7099H310.619V85.8817H306.656V52.6139V52.6084ZM317.843 64.7586C312.529 64.7586 310.475 69.3253 310.475 73.8477C310.475 78.6026 312.617 82.9867 318.075 82.9867C323.483 82.9867 325.299 78.3701 325.299 73.6651C325.299 69.1426 322.968 64.7586 317.843 64.7586Z" fill="#42145F"/>
<path d="M335.694 78.2984C335.833 81.841 338.91 82.9592 342.176 82.9592C344.645 82.9592 348.005 82.4001 348.005 79.3722C348.005 76.2946 344.092 75.7853 340.128 74.8996C336.215 74.014 332.251 72.7076 332.251 68.0911C332.251 63.2421 337.05 61.2383 341.246 61.2383C346.56 61.2383 350.8 62.9155 351.127 68.7886H347.164C346.881 65.7109 344.18 64.7311 341.567 64.7311C339.193 64.7311 336.442 65.3843 336.442 67.8088C336.442 70.654 340.637 71.119 344.318 72.0046C348.282 72.8903 352.195 74.1967 352.195 78.8575C352.195 84.5921 346.832 86.4576 341.938 86.4576C336.53 86.4576 331.963 84.2655 331.731 78.2984H335.694Z" fill="#42145F"/>
<path d="M64.3047 52.6138H71.617V79.7317H87.8357V85.8871H64.3047V52.6138Z" fill="#42145F"/>
<path d="M102.056 52.6138H109.557L122 85.8871H114.411L111.893 78.4752H99.4545L96.8418 85.8871H89.4354L102.067 52.6138H102.056ZM101.353 73.0228H109.977L105.787 60.8172H105.693L101.359 73.0228H101.353Z" fill="#42145F"/>
<path d="M150.74 73.2997C150.74 82.2947 145.426 86.6732 136.531 86.6732C127.635 86.6732 122.365 82.339 122.365 73.2997V52.6084H129.683V73.2997C129.683 76.9309 130.613 80.5234 136.531 80.5234C141.75 80.5234 143.428 78.2373 143.428 73.2997V52.6084H150.74V73.2997Z" fill="#42145F"/>
<path d="M154.288 52.6139H172.228C178.185 52.6139 181.965 56.7599 181.965 61.7916C181.965 65.7051 180.377 68.6444 176.701 70.1335V70.2276C180.288 71.1575 181.312 74.6504 181.545 78.0103C181.683 80.1083 181.639 84.0163 182.945 85.8872H175.633C174.747 83.7893 174.841 80.5732 174.47 77.9162C173.955 74.4234 172.599 72.879 168.924 72.879H161.606V85.8817H154.294V52.6084L154.288 52.6139ZM161.6 67.6647H169.616C172.876 67.6647 174.653 66.2642 174.653 62.9153C174.653 59.5664 172.882 58.3043 169.616 58.3043H161.6V67.6702V67.6647Z" fill="#42145F"/>
<path d="M214.203 73.2997C214.203 82.2947 208.889 86.6732 199.994 86.6732C191.099 86.6732 185.829 82.339 185.829 73.2997V52.6084H193.141V73.2997C193.141 76.9309 194.071 80.5234 199.994 80.5234C205.214 80.5234 206.891 78.2373 206.891 73.2997V52.6084H214.209V73.2997H214.203Z" fill="#42145F"/>
<path d="M223.425 74.8386C223.425 79.2669 226.868 80.9884 230.787 80.9884C233.35 80.9884 237.269 80.2412 237.269 76.8424C237.269 73.2555 232.287 72.6521 227.389 71.3458C222.451 70.0394 217.464 68.1297 217.464 61.8858C217.464 55.0828 223.896 51.8169 229.907 51.8169C236.849 51.8169 243.236 54.8448 243.236 62.5334H236.157C235.924 58.5313 233.079 57.5073 229.586 57.5073C227.256 57.5073 224.549 58.487 224.549 61.2769C224.549 63.8398 226.138 64.1664 234.479 66.3086C236.904 66.9175 244.355 68.4508 244.355 76.0011C244.355 82.1066 239.555 86.6733 230.516 86.6733C223.16 86.6733 216.262 83.0421 216.357 74.8386H223.436H223.425Z" fill="#42145F"/>
<path d="M72.8514 102.665C73.4216 102.864 73.9308 103.136 74.3847 103.479C74.8386 103.828 75.215 104.226 75.5029 104.669C75.7963 105.117 75.9845 105.604 76.0675 106.13C76.0896 106.263 76.0896 106.352 76.0675 106.39C76.0454 106.435 75.99 106.462 75.907 106.473L74.2408 106.584C74.1689 106.595 74.119 106.584 74.0969 106.545C74.0748 106.507 74.0526 106.457 74.0249 106.385C73.8699 105.665 73.5378 105.084 73.0396 104.625C72.5359 104.171 71.8993 103.944 71.1189 103.944C69.9841 103.944 69.104 104.376 68.4895 105.234C67.8751 106.092 67.5651 107.409 67.5651 109.18C67.5651 110.952 67.864 112.23 68.4674 113.094C69.0708 113.952 69.9786 114.384 71.1853 114.384C71.9824 114.384 72.6577 114.19 73.2002 113.802C73.7482 113.415 74.191 112.778 74.5397 111.893C74.5785 111.81 74.667 111.782 74.811 111.804L76.0841 112.109C76.1229 112.12 76.1561 112.147 76.1893 112.18C76.228 112.214 76.2336 112.291 76.2059 112.413C76.1229 112.723 75.9845 113.05 75.7907 113.382C75.597 113.719 75.359 114.04 75.0711 114.361C74.7833 114.677 74.4401 114.959 74.0471 115.214C73.6541 115.463 73.2057 115.668 72.713 115.812C72.2204 115.956 71.6779 116.033 71.0912 116.033C69.8845 116.033 68.8438 115.751 67.9803 115.192C67.1112 114.627 66.447 113.836 65.982 112.806C65.517 111.776 65.2845 110.564 65.2845 109.164C65.2845 107.763 65.517 106.54 65.982 105.521C66.447 104.508 67.1112 103.728 67.9748 103.18C68.8383 102.637 69.8623 102.366 71.0414 102.366C71.6779 102.366 72.2758 102.466 72.8459 102.665H72.8514Z" fill="#42145F"/>
<path d="M78.7687 115.574V102.815C78.7687 102.638 78.8406 102.543 78.9846 102.543H80.4016C80.5455 102.543 80.6175 102.621 80.6175 102.776V107.514C80.6175 107.575 80.6341 107.614 80.6618 107.63C80.6895 107.647 80.7337 107.63 80.7946 107.57C81.1987 107.243 81.5751 106.983 81.9128 106.778C82.2504 106.573 82.5936 106.424 82.9368 106.319C83.28 106.213 83.6398 106.164 84.0218 106.164C84.9406 106.164 85.6492 106.413 86.1418 106.911C86.6289 107.409 86.878 108.079 86.878 108.931V115.535C86.878 115.751 86.7729 115.856 86.5736 115.856H85.2451C85.151 115.856 85.0846 115.834 85.0403 115.795C84.996 115.756 84.9794 115.679 84.9794 115.574V109.297C84.9794 108.771 84.8465 108.356 84.5753 108.057C84.3096 107.758 83.8834 107.608 83.3077 107.608C82.9866 107.608 82.6822 107.658 82.4054 107.758C82.1231 107.863 81.8464 108.007 81.5696 108.206C81.2928 108.405 80.9939 108.649 80.6729 108.953V115.557C80.6729 115.762 80.5621 115.862 80.3297 115.862H79.0565C78.8628 115.862 78.7687 115.768 78.7687 115.574Z" fill="#42145F"/>
<path d="M91.6053 113.232C91.8655 113.669 92.2087 114.012 92.646 114.273C93.0833 114.533 93.5704 114.66 94.1073 114.66C94.6442 114.66 95.148 114.544 95.5797 114.317C96.0115 114.09 96.4045 113.736 96.7643 113.26C96.7975 113.21 96.8363 113.188 96.8695 113.177C96.9027 113.166 96.958 113.182 97.03 113.221L97.9433 113.653C98.0762 113.714 98.0873 113.808 97.9821 113.94C97.65 114.433 97.2791 114.832 96.8805 115.142C96.482 115.452 96.0336 115.679 95.541 115.823C95.0539 115.966 94.5059 116.038 93.908 116.038C92.9947 116.038 92.1976 115.834 91.5001 115.43C90.8082 115.02 90.2602 114.455 89.8561 113.725C89.4576 112.994 89.2583 112.158 89.2583 111.217C89.2583 110.176 89.4631 109.28 89.8672 108.532C90.2713 107.785 90.8248 107.204 91.5278 106.794C92.2253 106.385 93.0058 106.174 93.8693 106.174C94.7328 106.174 95.5299 106.368 96.1942 106.761C96.8584 107.149 97.3732 107.708 97.7496 108.438C98.1205 109.169 98.3031 110.055 98.3031 111.095C98.3031 111.206 98.2921 111.295 98.2644 111.372C98.2423 111.45 98.1592 111.488 98.0319 111.488H91.395C91.3341 111.488 91.2898 111.516 91.2621 111.571C91.2344 111.627 91.2178 111.693 91.2178 111.776C91.2178 112.313 91.3451 112.8 91.6053 113.237V113.232ZM96.1167 110.354C96.2495 110.354 96.3325 110.337 96.3658 110.298C96.4045 110.265 96.4156 110.199 96.4156 110.099C96.4156 109.645 96.3159 109.213 96.1222 108.809C95.9229 108.4 95.6406 108.073 95.2808 107.824C94.9155 107.575 94.4671 107.447 93.9246 107.447C93.3822 107.447 92.8785 107.58 92.4799 107.852C92.0814 108.117 91.7714 108.477 91.561 108.92C91.3507 109.363 91.251 109.833 91.251 110.337L96.1111 110.354H96.1167Z" fill="#42145F"/>
<path d="M100.672 115.573V106.623C100.672 106.446 100.75 106.351 100.905 106.351H102.305C102.449 106.351 102.521 106.429 102.521 106.584V107.569C102.521 107.63 102.538 107.669 102.571 107.685C102.61 107.702 102.648 107.685 102.698 107.619C103.069 107.32 103.418 107.06 103.739 106.839C104.065 106.617 104.392 106.451 104.735 106.335C105.078 106.219 105.444 106.163 105.837 106.163C106.518 106.163 107.077 106.324 107.508 106.639C107.94 106.955 108.234 107.337 108.389 107.78C108.411 107.824 108.444 107.846 108.488 107.829C108.533 107.813 108.577 107.791 108.621 107.741C108.97 107.42 109.313 107.137 109.662 106.905C110.01 106.673 110.365 106.49 110.719 106.357C111.073 106.224 111.455 106.158 111.848 106.158C112.706 106.158 113.382 106.407 113.869 106.911C114.35 107.414 114.594 108.09 114.594 108.936V115.518C114.594 115.734 114.489 115.839 114.273 115.839H112.944C112.861 115.839 112.795 115.817 112.756 115.778C112.717 115.734 112.695 115.662 112.695 115.557V109.28C112.695 108.754 112.562 108.339 112.302 108.04C112.042 107.741 111.643 107.591 111.118 107.591C110.808 107.591 110.509 107.652 110.221 107.769C109.933 107.885 109.673 108.034 109.44 108.206C109.208 108.377 109.003 108.549 108.82 108.715C108.737 108.798 108.676 108.876 108.643 108.948C108.604 109.02 108.588 109.119 108.588 109.235V115.513C108.588 115.728 108.477 115.834 108.267 115.834H106.955C106.872 115.834 106.805 115.811 106.756 115.773C106.711 115.728 106.684 115.656 106.684 115.551V109.274C106.684 108.748 106.556 108.333 106.307 108.034C106.058 107.735 105.654 107.586 105.106 107.586C104.652 107.586 104.237 107.697 103.861 107.918C103.484 108.139 103.058 108.477 102.576 108.931V115.535C102.576 115.739 102.466 115.839 102.233 115.839H100.96C100.766 115.839 100.672 115.745 100.672 115.551V115.573Z" fill="#42145F"/>
<path d="M119.421 104.447C119.421 104.697 119.304 104.824 119.061 104.824H117.732C117.6 104.824 117.517 104.796 117.472 104.735C117.428 104.674 117.411 104.591 117.411 104.486V102.853C117.411 102.648 117.5 102.549 117.677 102.549H119.166C119.338 102.549 119.415 102.643 119.415 102.837V104.453L119.421 104.447ZM119.365 115.518C119.365 115.651 119.338 115.74 119.282 115.79C119.233 115.834 119.138 115.861 119.006 115.861H117.788C117.655 115.861 117.566 115.839 117.528 115.801C117.483 115.756 117.461 115.684 117.461 115.579V106.628C117.461 106.451 117.544 106.357 117.71 106.357H119.144C119.288 106.357 119.36 106.44 119.36 106.606V115.524L119.365 115.518Z" fill="#42145F"/>
<path d="M127.17 107.752C126.761 107.536 126.279 107.431 125.72 107.431C125.161 107.431 124.646 107.547 124.259 107.791C123.871 108.029 123.677 108.366 123.677 108.793C123.677 108.997 123.76 109.202 123.927 109.401C124.093 109.601 124.452 109.783 125.006 109.938L127.215 110.569C128.089 110.796 128.715 111.14 129.097 111.593C129.479 112.047 129.672 112.568 129.672 113.154C129.672 113.741 129.501 114.267 129.163 114.688C128.82 115.114 128.349 115.441 127.746 115.684C127.143 115.922 126.451 116.044 125.67 116.044C124.69 116.044 123.838 115.856 123.113 115.479C122.388 115.103 121.878 114.632 121.58 114.073C121.557 114.001 121.541 113.94 121.541 113.885C121.541 113.83 121.563 113.785 121.613 113.752L122.493 113.287C122.576 113.237 122.642 113.221 122.698 113.226C122.753 113.232 122.792 113.26 122.814 113.309C123.008 113.581 123.229 113.83 123.478 114.046C123.727 114.262 124.032 114.433 124.391 114.555C124.751 114.682 125.183 114.743 125.681 114.743C126.102 114.743 126.478 114.688 126.822 114.572C127.165 114.455 127.43 114.3 127.619 114.095C127.807 113.891 127.906 113.653 127.906 113.376C127.906 113.099 127.79 112.844 127.558 112.634C127.325 112.424 126.916 112.241 126.329 112.086L124.497 111.621C123.589 111.383 122.936 111.051 122.543 110.636C122.15 110.215 121.95 109.717 121.95 109.13C121.95 108.543 122.105 108.034 122.415 107.597C122.725 107.16 123.168 106.816 123.733 106.567C124.297 106.318 124.967 106.191 125.731 106.191C126.567 106.191 127.303 106.351 127.94 106.667C128.576 106.982 129.052 107.387 129.373 107.879C129.407 107.929 129.434 107.979 129.445 108.034C129.456 108.09 129.429 108.139 129.357 108.189L128.421 108.671C128.371 108.693 128.322 108.698 128.266 108.687C128.211 108.676 128.161 108.643 128.111 108.599C127.884 108.267 127.569 107.99 127.159 107.774L127.17 107.752Z" fill="#42145F"/>
<path d="M134.831 107.713C134.721 107.713 134.671 107.774 134.671 107.89V113.149C134.671 113.664 134.765 114.012 134.959 114.201C135.152 114.389 135.446 114.483 135.839 114.483H136.985C137.057 114.483 137.112 114.505 137.145 114.544C137.178 114.588 137.195 114.638 137.195 114.693V115.463C137.195 115.618 137.106 115.723 136.929 115.767C136.774 115.789 136.58 115.811 136.354 115.817C136.127 115.828 135.9 115.839 135.678 115.845C135.457 115.85 135.263 115.85 135.091 115.85C134.317 115.85 133.73 115.668 133.342 115.302C132.955 114.937 132.761 114.372 132.761 113.608V107.924C132.761 107.78 132.7 107.708 132.584 107.708H131.239C131.084 107.708 131.006 107.636 131.006 107.492V106.54C131.006 106.407 131.078 106.34 131.222 106.34H132.656C132.75 106.34 132.8 106.285 132.8 106.18L133.016 103.362C133.027 103.196 133.099 103.113 133.232 103.113H134.472C134.626 103.113 134.704 103.207 134.704 103.401V106.18C134.704 106.285 134.759 106.34 134.865 106.34H137.018C137.162 106.34 137.234 106.407 137.234 106.54V107.492C137.234 107.636 137.151 107.708 136.985 107.708H134.831V107.713Z" fill="#42145F"/>
<path d="M139.586 115.789C139.536 115.74 139.514 115.668 139.514 115.574V106.623C139.514 106.446 139.592 106.352 139.747 106.352H141.131C141.274 106.352 141.346 106.429 141.346 106.584V107.713C141.346 107.785 141.369 107.824 141.407 107.841C141.446 107.857 141.496 107.83 141.54 107.769C141.839 107.409 142.138 107.115 142.448 106.877C142.752 106.645 143.062 106.468 143.372 106.346C143.682 106.23 143.992 106.169 144.308 106.169C144.729 106.169 144.939 106.252 144.939 106.418V107.818C144.939 107.962 144.872 108.023 144.74 107.996C144.596 107.962 144.441 107.935 144.28 107.924C144.12 107.913 143.954 107.907 143.787 107.907C143.538 107.907 143.273 107.962 142.996 108.068C142.719 108.178 142.465 108.322 142.232 108.505C142 108.688 141.8 108.898 141.645 109.125C141.49 109.352 141.413 109.584 141.413 109.822V115.546C141.413 115.751 141.302 115.85 141.07 115.85H139.796C139.702 115.85 139.63 115.828 139.581 115.778L139.586 115.789Z" fill="#42145F"/>
<path d="M146.915 118.784C146.732 118.762 146.638 118.679 146.638 118.551V117.638C146.638 117.566 146.671 117.505 146.738 117.461C146.804 117.411 146.937 117.389 147.142 117.389H148.31C148.559 117.389 148.791 117.317 149.002 117.168C149.212 117.018 149.378 116.83 149.511 116.603C149.644 116.376 149.727 116.138 149.771 115.894C149.816 115.651 149.799 115.429 149.727 115.241L146.301 106.7C146.262 106.617 146.262 106.54 146.301 106.468C146.334 106.396 146.411 106.357 146.533 106.357H148.005C148.077 106.357 148.144 106.379 148.205 106.418C148.266 106.462 148.299 106.517 148.31 106.589L150.784 113.049C150.823 113.154 150.867 113.21 150.928 113.21C150.989 113.21 151.044 113.138 151.089 112.994L153.53 106.573C153.552 106.512 153.591 106.462 153.635 106.418C153.685 106.379 153.74 106.357 153.812 106.357H154.869C154.963 106.357 155.03 106.39 155.074 106.457C155.118 106.523 155.113 106.589 155.069 106.661L151.21 116.437C151.017 116.93 150.812 117.328 150.579 117.638C150.352 117.948 150.103 118.192 149.827 118.363C149.55 118.535 149.245 118.657 148.902 118.723C148.559 118.789 148.172 118.823 147.729 118.823C147.369 118.823 147.098 118.812 146.915 118.784Z" fill="#42145F"/>
<path d="M167.346 106.413C167.385 106.457 167.407 106.512 167.407 106.584V107.52C167.407 107.653 167.33 107.719 167.175 107.719H165.309C165.198 107.719 165.149 107.774 165.149 107.88V115.579C165.149 115.773 165.071 115.867 164.916 115.867H163.46C163.316 115.867 163.244 115.784 163.244 115.618V107.869C163.244 107.774 163.2 107.725 163.117 107.725H161.501C161.357 107.725 161.285 107.658 161.285 107.525V106.59C161.285 106.518 161.302 106.463 161.34 106.418C161.373 106.379 161.434 106.357 161.517 106.357H163.062C163.178 106.357 163.239 106.285 163.239 106.141V104.907C163.239 104.154 163.438 103.573 163.831 103.169C164.224 102.759 164.816 102.56 165.608 102.56H167.208C167.385 102.56 167.473 102.649 167.473 102.831L167.49 103.673C167.49 103.734 167.473 103.783 167.44 103.828C167.402 103.872 167.346 103.889 167.258 103.889H166.112C165.763 103.889 165.508 103.999 165.348 104.221C165.187 104.442 165.104 104.741 165.104 105.112V106.208C165.104 106.313 165.165 106.368 165.281 106.368H167.147C167.23 106.368 167.296 106.391 167.335 106.429L167.346 106.413Z" fill="#42145F"/>
<path d="M171.149 115.419C170.452 115.004 169.915 114.433 169.533 113.697C169.151 112.961 168.957 112.114 168.957 111.157C168.957 110.199 169.156 109.291 169.549 108.544C169.942 107.797 170.49 107.215 171.193 106.795C171.891 106.374 172.688 106.164 173.59 106.164C174.492 106.164 175.334 106.379 176.02 106.8C176.707 107.226 177.244 107.813 177.625 108.56C178.007 109.308 178.201 110.166 178.201 111.134C178.201 112.103 178.007 112.939 177.614 113.675C177.227 114.411 176.684 114.987 175.993 115.408C175.301 115.823 174.492 116.033 173.574 116.033C172.655 116.033 171.847 115.828 171.155 115.413L171.149 115.419ZM175.04 114.262C175.433 113.974 175.738 113.564 175.948 113.033C176.159 112.502 176.264 111.854 176.264 111.101C176.264 110.348 176.159 109.701 175.948 109.164C175.738 108.627 175.433 108.212 175.035 107.918C174.636 107.625 174.155 107.481 173.59 107.481C173.026 107.481 172.544 107.63 172.145 107.918C171.747 108.212 171.437 108.627 171.221 109.164C171.005 109.706 170.9 110.348 170.9 111.101C170.9 111.854 171.005 112.496 171.221 113.033C171.437 113.564 171.747 113.974 172.145 114.262C172.544 114.55 173.037 114.694 173.607 114.694C174.177 114.694 174.647 114.55 175.04 114.262Z" fill="#42145F"/>
<path d="M180.747 115.789C180.698 115.74 180.675 115.668 180.675 115.574V106.623C180.675 106.446 180.753 106.352 180.908 106.352H182.292C182.436 106.352 182.508 106.429 182.508 106.584V107.713C182.508 107.785 182.53 107.824 182.569 107.841C182.607 107.857 182.657 107.83 182.701 107.769C183 107.409 183.299 107.115 183.609 106.877C183.914 106.645 184.224 106.468 184.534 106.346C184.844 106.23 185.154 106.169 185.469 106.169C185.89 106.169 186.1 106.252 186.1 106.418V107.818C186.1 107.962 186.034 108.023 185.901 107.996C185.757 107.962 185.602 107.935 185.441 107.924C185.281 107.913 185.115 107.907 184.949 107.907C184.7 107.907 184.434 107.962 184.157 108.068C183.88 108.178 183.626 108.322 183.393 108.505C183.161 108.688 182.962 108.898 182.807 109.125C182.652 109.352 182.574 109.584 182.574 109.822V115.546C182.574 115.751 182.463 115.85 182.231 115.85H180.958C180.864 115.85 180.792 115.828 180.742 115.778L180.747 115.789Z" fill="#42145F"/>
<path d="M192.278 115.79C192.233 115.74 192.206 115.679 192.206 115.613V102.853C192.206 102.759 192.233 102.682 192.289 102.626C192.344 102.571 192.41 102.543 192.494 102.543H196.855C198.505 102.543 199.773 102.837 200.658 103.424C201.544 104.01 201.987 104.868 201.987 106.009C201.987 106.712 201.804 107.304 201.433 107.785C201.062 108.262 200.464 108.66 199.64 108.97C199.59 108.981 199.568 109.009 199.568 109.053C199.568 109.097 199.59 109.125 199.64 109.136C200.525 109.374 201.19 109.751 201.638 110.254C202.086 110.764 202.313 111.439 202.313 112.291C202.313 113.498 201.859 114.395 200.957 114.981C200.055 115.568 198.743 115.862 197.016 115.862H192.477C192.394 115.862 192.327 115.839 192.278 115.79ZM197.105 108.345C197.437 108.345 197.763 108.311 198.084 108.245C198.405 108.178 198.693 108.068 198.953 107.902C199.219 107.741 199.429 107.525 199.584 107.254C199.739 106.983 199.817 106.656 199.817 106.258C199.817 105.527 199.551 104.979 199.02 104.614C198.488 104.248 197.78 104.066 196.894 104.066H194.652C194.475 104.066 194.381 104.143 194.381 104.298V108.084C194.381 108.25 194.448 108.333 194.58 108.333H197.11L197.105 108.345ZM196.927 114.334C197.979 114.334 198.765 114.151 199.28 113.786C199.795 113.421 200.049 112.878 200.049 112.164C200.049 111.638 199.922 111.206 199.662 110.88C199.402 110.553 199.053 110.31 198.61 110.155C198.167 110 197.664 109.922 197.105 109.922H194.663C194.47 109.922 194.376 110 194.376 110.155V114.068C194.376 114.245 194.442 114.334 194.575 114.334H196.927Z" fill="#42145F"/>
<path d="M207.456 113.232C207.716 113.669 208.059 114.012 208.496 114.273C208.934 114.533 209.421 114.66 209.958 114.66C210.495 114.66 210.998 114.544 211.43 114.317C211.862 114.09 212.255 113.736 212.615 113.26C212.648 113.21 212.687 113.188 212.72 113.177C212.753 113.166 212.808 113.182 212.88 113.221L213.794 113.653C213.927 113.714 213.938 113.808 213.832 113.94C213.5 114.433 213.129 114.832 212.731 115.142C212.332 115.452 211.884 115.679 211.391 115.823C210.904 115.966 210.356 116.038 209.758 116.038C208.845 116.038 208.048 115.834 207.35 115.43C206.659 115.02 206.111 114.455 205.706 113.725C205.308 112.994 205.109 112.158 205.109 111.217C205.109 110.176 205.313 109.28 205.718 108.532C206.122 107.785 206.675 107.204 207.378 106.794C208.076 106.385 208.856 106.174 209.72 106.174C210.583 106.174 211.38 106.368 212.044 106.761C212.709 107.149 213.224 107.708 213.6 108.438C213.971 109.169 214.153 110.055 214.153 111.095C214.153 111.206 214.142 111.295 214.115 111.372C214.093 111.45 214.01 111.488 213.882 111.488H207.245C207.184 111.488 207.14 111.516 207.112 111.571C207.085 111.627 207.068 111.693 207.068 111.776C207.068 112.313 207.195 112.8 207.456 113.237V113.232ZM211.967 110.354C212.1 110.354 212.183 110.337 212.216 110.298C212.255 110.265 212.266 110.199 212.266 110.099C212.266 109.645 212.166 109.213 211.973 108.809C211.773 108.4 211.491 108.073 211.131 107.824C210.766 107.575 210.317 107.447 209.775 107.447C209.233 107.447 208.729 107.58 208.33 107.852C207.932 108.117 207.622 108.477 207.411 108.92C207.201 109.363 207.101 109.833 207.101 110.337L211.961 110.354H211.967Z" fill="#42145F"/>
<path d="M219.235 107.713C219.124 107.713 219.074 107.774 219.074 107.89V113.149C219.074 113.664 219.169 114.012 219.362 114.201C219.556 114.389 219.849 114.483 220.242 114.483H221.388C221.46 114.483 221.516 114.505 221.549 114.544C221.582 114.588 221.599 114.638 221.599 114.693V115.463C221.599 115.618 221.51 115.723 221.333 115.767C221.178 115.789 220.984 115.811 220.757 115.817C220.53 115.828 220.303 115.839 220.082 115.845C219.86 115.85 219.667 115.85 219.495 115.85C218.72 115.85 218.133 115.668 217.746 115.302C217.358 114.937 217.165 114.372 217.165 113.608V107.924C217.165 107.78 217.104 107.708 216.988 107.708H215.643C215.488 107.708 215.41 107.636 215.41 107.492V106.54C215.41 106.407 215.482 106.34 215.626 106.34H217.06C217.154 106.34 217.204 106.285 217.204 106.18L217.419 103.362C217.43 103.196 217.502 103.113 217.635 103.113H218.875C219.03 103.113 219.108 103.207 219.108 103.401V106.18C219.108 106.285 219.163 106.34 219.268 106.34H221.421C221.565 106.34 221.637 106.407 221.637 106.54V107.492C221.637 107.636 221.554 107.708 221.388 107.708H219.235V107.713Z" fill="#42145F"/>
<path d="M226.951 107.713C226.841 107.713 226.791 107.774 226.791 107.89V113.149C226.791 113.664 226.885 114.012 227.079 114.201C227.272 114.389 227.566 114.483 227.959 114.483H229.105C229.177 114.483 229.232 114.505 229.265 114.544C229.298 114.588 229.315 114.638 229.315 114.693V115.463C229.315 115.618 229.226 115.723 229.049 115.767C228.894 115.789 228.7 115.811 228.474 115.817C228.247 115.828 228.02 115.839 227.798 115.845C227.577 115.85 227.383 115.85 227.211 115.85C226.437 115.85 225.85 115.668 225.462 115.302C225.075 114.937 224.881 114.372 224.881 113.608V107.924C224.881 107.78 224.82 107.708 224.704 107.708H223.359C223.204 107.708 223.126 107.636 223.126 107.492V106.54C223.126 106.407 223.198 106.34 223.342 106.34H224.776C224.87 106.34 224.92 106.285 224.92 106.18L225.136 103.362C225.147 103.196 225.219 103.113 225.352 103.113H226.592C226.746 103.113 226.824 103.207 226.824 103.401V106.18C226.824 106.285 226.879 106.34 226.985 106.34H229.138C229.282 106.34 229.354 106.407 229.354 106.54V107.492C229.354 107.636 229.271 107.708 229.105 107.708H226.951V107.713Z" fill="#42145F"/>
<path d="M233.278 113.232C233.538 113.669 233.882 114.012 234.319 114.273C234.756 114.533 235.243 114.66 235.78 114.66C236.317 114.66 236.821 114.544 237.253 114.317C237.684 114.09 238.077 113.736 238.437 113.26C238.47 113.21 238.509 113.188 238.542 113.177C238.576 113.166 238.631 113.182 238.703 113.221L239.616 113.653C239.749 113.714 239.76 113.808 239.655 113.94C239.323 114.433 238.952 114.832 238.554 115.142C238.155 115.452 237.707 115.679 237.214 115.823C236.727 115.966 236.179 116.038 235.581 116.038C234.668 116.038 233.871 115.834 233.173 115.43C232.481 115.02 231.933 114.455 231.529 113.725C231.131 112.994 230.931 112.158 230.931 111.217C230.931 110.176 231.136 109.28 231.54 108.532C231.95 107.785 232.498 107.204 233.201 106.794C233.898 106.385 234.679 106.174 235.542 106.174C236.406 106.174 237.203 106.368 237.867 106.761C238.531 107.149 239.046 107.708 239.423 108.438C239.793 109.169 239.976 110.055 239.976 111.095C239.976 111.206 239.965 111.295 239.937 111.372C239.915 111.45 239.832 111.488 239.705 111.488H233.068C233.007 111.488 232.963 111.516 232.935 111.571C232.907 111.627 232.891 111.693 232.891 111.776C232.891 112.313 233.018 112.8 233.278 113.237V113.232ZM237.79 110.354C237.922 110.354 238.006 110.337 238.039 110.298C238.077 110.265 238.089 110.199 238.089 110.099C238.089 109.645 237.989 109.213 237.795 108.809C237.596 108.4 237.314 108.073 236.954 107.824C236.588 107.575 236.14 107.447 235.598 107.447C235.055 107.447 234.551 107.58 234.153 107.852C233.754 108.117 233.444 108.477 233.234 108.92C233.024 109.363 232.924 109.833 232.924 110.337L237.784 110.354H237.79Z" fill="#42145F"/>
<path d="M242.711 115.789C242.661 115.74 242.639 115.668 242.639 115.574V106.623C242.639 106.446 242.716 106.352 242.871 106.352H244.255C244.399 106.352 244.471 106.429 244.471 106.584V107.713C244.471 107.785 244.493 107.824 244.532 107.841C244.571 107.857 244.62 107.83 244.665 107.769C244.964 107.409 245.262 107.115 245.572 106.877C245.877 106.645 246.187 106.468 246.497 106.346C246.807 106.23 247.117 106.169 247.432 106.169C247.853 106.169 248.063 106.252 248.063 106.418V107.818C248.063 107.962 247.997 108.023 247.864 107.996C247.72 107.962 247.565 107.935 247.405 107.924C247.244 107.913 247.078 107.907 246.912 107.907C246.663 107.907 246.397 107.962 246.12 108.068C245.844 108.178 245.589 108.322 245.357 108.505C245.124 108.688 244.925 108.898 244.77 109.125C244.615 109.352 244.537 109.584 244.537 109.822V115.546C244.537 115.751 244.427 115.85 244.194 115.85H242.921C242.827 115.85 242.755 115.828 242.705 115.778L242.711 115.789Z" fill="#42145F"/>
<path d="M255.752 102.549H257.44C257.595 102.549 257.673 102.637 257.673 102.82V114.035C257.673 114.168 257.734 114.234 257.85 114.234H263.917C264.083 114.234 264.166 114.306 264.166 114.45V115.635C264.166 115.706 264.144 115.762 264.105 115.806C264.066 115.85 264 115.867 263.917 115.867H255.807C255.691 115.867 255.608 115.845 255.564 115.795C255.52 115.745 255.503 115.673 255.503 115.579V102.82C255.503 102.643 255.586 102.549 255.752 102.549Z" fill="#42145F"/>
<path d="M268.6 104.447C268.6 104.697 268.483 104.824 268.24 104.824H266.911C266.779 104.824 266.696 104.796 266.651 104.735C266.607 104.674 266.59 104.591 266.59 104.486V102.853C266.59 102.648 266.679 102.549 266.856 102.549H268.345C268.517 102.549 268.594 102.643 268.594 102.837V104.453L268.6 104.447ZM268.544 115.518C268.544 115.651 268.517 115.74 268.461 115.79C268.411 115.834 268.317 115.861 268.185 115.861H266.967C266.834 115.861 266.745 115.839 266.707 115.801C266.662 115.756 266.64 115.684 266.64 115.579V106.628C266.64 106.451 266.723 106.357 266.889 106.357H268.323C268.467 106.357 268.539 106.44 268.539 106.606V115.524L268.544 115.518Z" fill="#42145F"/>
<path d="M279.781 106.44C279.82 106.501 279.82 106.573 279.781 106.656L276.155 115.557C276.084 115.762 275.929 115.861 275.69 115.861H274.849C274.611 115.861 274.451 115.767 274.368 115.574L270.764 106.673C270.742 106.579 270.747 106.501 270.792 106.44C270.836 106.379 270.902 106.352 270.996 106.352H272.486C272.557 106.352 272.624 106.374 272.679 106.412C272.74 106.457 272.773 106.512 272.79 106.584L275.375 113.077C275.458 113.304 275.552 113.298 275.663 113.06L278.209 106.567C278.248 106.507 278.287 106.457 278.336 106.412C278.381 106.374 278.447 106.352 278.536 106.352H279.593C279.687 106.352 279.753 106.379 279.792 106.44H279.781Z" fill="#42145F"/>
<path d="M283.922 104.447C283.922 104.697 283.805 104.824 283.562 104.824H282.233C282.101 104.824 282.018 104.796 281.973 104.735C281.929 104.674 281.912 104.591 281.912 104.486V102.853C281.912 102.648 282.001 102.549 282.178 102.549H283.667C283.839 102.549 283.916 102.643 283.916 102.837V104.453L283.922 104.447ZM283.866 115.518C283.866 115.651 283.839 115.74 283.783 115.79C283.733 115.834 283.639 115.861 283.507 115.861H282.289C282.156 115.861 282.067 115.839 282.029 115.801C281.984 115.756 281.962 115.684 281.962 115.579V106.628C281.962 106.451 282.045 106.357 282.211 106.357H283.645C283.789 106.357 283.861 106.44 283.861 106.606V115.524L283.866 115.518Z" fill="#42145F"/>
<path d="M286.806 115.574V106.623C286.806 106.446 286.883 106.352 287.038 106.352H288.455C288.599 106.352 288.671 106.429 288.671 106.584V107.57C288.671 107.63 288.688 107.669 288.715 107.686C288.743 107.702 288.787 107.686 288.848 107.619C289.219 107.32 289.573 107.06 289.905 106.839C290.238 106.617 290.581 106.451 290.929 106.335C291.278 106.219 291.655 106.164 292.059 106.164C292.966 106.164 293.675 106.413 294.179 106.916C294.682 107.42 294.932 108.084 294.932 108.909V115.529C294.932 115.745 294.826 115.851 294.627 115.851H293.299C293.204 115.851 293.138 115.828 293.094 115.79C293.05 115.751 293.033 115.673 293.033 115.568V109.291C293.033 108.765 292.895 108.35 292.618 108.051C292.341 107.752 291.92 107.603 291.345 107.603C291.018 107.603 290.725 107.653 290.448 107.752C290.177 107.857 289.9 108.001 289.623 108.201C289.346 108.4 289.042 108.643 288.704 108.948V115.552C288.704 115.756 288.594 115.856 288.361 115.856H287.088C286.894 115.856 286.8 115.762 286.8 115.568L286.806 115.574Z" fill="#42145F"/>
<path d="M306.65 106.191C306.7 106.241 306.733 106.324 306.733 106.44V107.248C306.733 107.381 306.705 107.475 306.65 107.536C306.595 107.597 306.501 107.619 306.373 107.608C306.179 107.597 306.013 107.597 305.87 107.608C305.726 107.619 305.587 107.647 305.46 107.697C305.161 107.791 305.039 107.929 305.1 108.112C305.15 108.228 305.205 108.378 305.261 108.549C305.321 108.721 305.349 108.942 305.349 109.202C305.349 109.728 305.205 110.215 304.917 110.658C304.63 111.101 304.187 111.45 303.589 111.715C302.991 111.981 302.238 112.108 301.33 112.108C300.766 112.108 300.323 112.142 299.996 112.208C299.664 112.275 299.432 112.363 299.288 112.474C299.144 112.59 299.072 112.706 299.072 112.823C299.072 113 299.188 113.133 299.421 113.21C299.653 113.287 300.035 113.337 300.561 113.359L302.947 113.503C304.059 113.564 304.873 113.819 305.388 114.273C305.903 114.727 306.157 115.313 306.157 116.028C306.157 116.924 305.748 117.644 304.928 118.181C304.109 118.718 302.93 118.989 301.386 118.989C299.841 118.989 298.607 118.779 297.788 118.358C296.969 117.937 296.559 117.328 296.559 116.531C296.559 116.111 296.708 115.745 297.007 115.435C297.306 115.125 297.716 114.848 298.242 114.61C298.386 114.55 298.386 114.483 298.242 114.411C297.982 114.278 297.766 114.123 297.6 113.935C297.434 113.747 297.351 113.526 297.351 113.26C297.351 113.066 297.411 112.883 297.539 112.712C297.666 112.54 297.838 112.374 298.065 112.219C298.292 112.064 298.563 111.931 298.873 111.826C298.934 111.804 298.967 111.776 298.978 111.738C298.989 111.699 298.956 111.66 298.873 111.61C298.347 111.35 297.948 111.018 297.683 110.614C297.411 110.215 297.279 109.739 297.279 109.186C297.279 108.278 297.644 107.547 298.364 107.005C299.083 106.462 300.129 106.191 301.497 106.191C302.133 106.191 302.676 106.263 303.118 106.407C303.567 106.551 303.938 106.75 304.242 106.999C304.314 107.06 304.386 107.088 304.458 107.088C304.53 107.088 304.596 107.049 304.657 106.983C304.801 106.839 304.967 106.7 305.161 106.562C305.355 106.424 305.554 106.313 305.77 106.23C305.986 106.147 306.196 106.103 306.401 106.103C306.517 106.103 306.606 106.125 306.661 106.175L306.65 106.191ZM299.825 114.893C299.609 114.882 299.376 114.937 299.127 115.053C298.878 115.175 298.657 115.341 298.474 115.557C298.292 115.773 298.197 116.022 298.197 116.31C298.197 116.642 298.314 116.935 298.557 117.179C298.795 117.422 299.166 117.611 299.659 117.743C300.157 117.876 300.794 117.943 301.568 117.943C302.504 117.943 303.212 117.81 303.705 117.539C304.192 117.267 304.441 116.863 304.441 116.326C304.441 115.967 304.309 115.673 304.048 115.446C303.783 115.219 303.356 115.086 302.759 115.053L299.836 114.893H299.825ZM303.035 110.542C303.406 110.21 303.589 109.767 303.589 109.202C303.589 108.638 303.406 108.151 303.035 107.813C302.665 107.475 302.094 107.304 301.33 107.304C300.567 107.304 300.019 107.475 299.62 107.813C299.222 108.151 299.017 108.616 299.017 109.202C299.017 109.789 299.216 110.21 299.62 110.542C300.019 110.869 300.589 111.035 301.33 111.035C302.072 111.035 302.665 110.869 303.035 110.542Z" fill="#42145F"/>
</g>
<defs>
<clipPath id="clip0_2469_8950">
<rect width="352.195" height="119" fill="white"/>
</clipPath>
</defs>
</svg>
